<mxfile host="app.diagrams.net" modified="2023-08-14T15:35:11.149Z" agent="Mozilla/5.0 (X11; Linux x86_64) AppleWebKit/537.36 (KHTML, like Gecko) Chrome/115.0.0.0 Safari/537.36 Edg/115.0.1901.203" etag="08H209hnOGiMflJL2J95" version="21.6.8" type="github">
  <diagram name="reactivity" id="0783ab3e-0a74-02c8-0abd-f7b4e66b4bec">
    <mxGraphModel dx="1050" dy="559" grid="1" gridSize="10" guides="1" tooltips="1" connect="1" arrows="1" fold="1" page="1" pageScale="1" pageWidth="850" pageHeight="1100" background="none" math="0" shadow="0">
      <root>
        <mxCell id="0" />
        <mxCell id="1" parent="0" />
        <mxCell id="HKoM_O8IZkuuAkILYHtu-3" value="" style="edgeStyle=orthogonalEdgeStyle;rounded=0;orthogonalLoop=1;jettySize=auto;html=1;" edge="1" parent="1" source="HKoM_O8IZkuuAkILYHtu-1" target="HKoM_O8IZkuuAkILYHtu-2">
          <mxGeometry relative="1" as="geometry" />
        </mxCell>
        <mxCell id="HKoM_O8IZkuuAkILYHtu-1" value="reactive.ts&lt;br&gt;reactive()" style="rounded=1;whiteSpace=wrap;html=1;" vertex="1" parent="1">
          <mxGeometry x="250" y="50" width="120" height="60" as="geometry" />
        </mxCell>
        <mxCell id="HKoM_O8IZkuuAkILYHtu-2" value="&lt;div style=&quot;color: rgb(204, 204, 204); background-color: rgb(31, 31, 31); font-family: &amp;quot;Droid Sans Mono&amp;quot;, &amp;quot;monospace&amp;quot;, monospace; font-size: 14px; line-height: 19px;&quot;&gt;createReactiveObject&lt;/div&gt;" style="whiteSpace=wrap;html=1;rounded=1;" vertex="1" parent="1">
          <mxGeometry x="320" y="210" width="200" height="60" as="geometry" />
        </mxCell>
        <mxCell id="HKoM_O8IZkuuAkILYHtu-6" style="edgeStyle=orthogonalEdgeStyle;rounded=0;orthogonalLoop=1;jettySize=auto;html=1;entryX=0;entryY=0.5;entryDx=0;entryDy=0;" edge="1" parent="1" source="HKoM_O8IZkuuAkILYHtu-4" target="HKoM_O8IZkuuAkILYHtu-2">
          <mxGeometry relative="1" as="geometry" />
        </mxCell>
        <mxCell id="HKoM_O8IZkuuAkILYHtu-4" value="&lt;div style=&quot;color: rgb(204, 204, 204); background-color: rgb(31, 31, 31); font-family: &amp;quot;Droid Sans Mono&amp;quot;, &amp;quot;monospace&amp;quot;, monospace; font-size: 14px; line-height: 19px;&quot;&gt;&lt;div style=&quot;line-height: 19px;&quot;&gt;baseHandlers&lt;/div&gt;&lt;/div&gt;&lt;div style=&quot;color: rgb(204, 204, 204); background-color: rgb(31, 31, 31); font-family: &amp;quot;Droid Sans Mono&amp;quot;, &amp;quot;monospace&amp;quot;, monospace; font-size: 14px; line-height: 19px;&quot;&gt;&lt;div style=&quot;line-height: 19px;&quot;&gt;ProxyHandler&amp;lt;&lt;span style=&quot;color: #4ec9b0;&quot;&gt;any&lt;/span&gt;&amp;gt;&lt;/div&gt;&lt;/div&gt;" style="whiteSpace=wrap;html=1;rounded=1;" vertex="1" parent="1">
          <mxGeometry x="20" y="130" width="150" height="60" as="geometry" />
        </mxCell>
        <mxCell id="HKoM_O8IZkuuAkILYHtu-8" style="edgeStyle=orthogonalEdgeStyle;rounded=0;orthogonalLoop=1;jettySize=auto;html=1;entryX=0.5;entryY=0;entryDx=0;entryDy=0;" edge="1" parent="1" source="HKoM_O8IZkuuAkILYHtu-7" target="HKoM_O8IZkuuAkILYHtu-2">
          <mxGeometry relative="1" as="geometry" />
        </mxCell>
        <mxCell id="HKoM_O8IZkuuAkILYHtu-7" value="reactive.ts&lt;br&gt;&lt;div style=&quot;color: rgb(204, 204, 204); background-color: rgb(31, 31, 31); font-family: &amp;quot;Droid Sans Mono&amp;quot;, &amp;quot;monospace&amp;quot;, monospace; font-size: 14px; line-height: 19px;&quot;&gt;shallowReactive&lt;/div&gt;" style="rounded=1;whiteSpace=wrap;html=1;" vertex="1" parent="1">
          <mxGeometry x="390" y="50" width="130" height="60" as="geometry" />
        </mxCell>
        <mxCell id="HKoM_O8IZkuuAkILYHtu-12" style="edgeStyle=orthogonalEdgeStyle;rounded=0;orthogonalLoop=1;jettySize=auto;html=1;entryX=1;entryY=0.5;entryDx=0;entryDy=0;" edge="1" parent="1" source="HKoM_O8IZkuuAkILYHtu-9" target="HKoM_O8IZkuuAkILYHtu-2">
          <mxGeometry relative="1" as="geometry" />
        </mxCell>
        <mxCell id="HKoM_O8IZkuuAkILYHtu-9" value="reactive.ts&lt;br&gt;&lt;div style=&quot;color: rgb(204, 204, 204); background-color: rgb(31, 31, 31); font-family: &amp;quot;Droid Sans Mono&amp;quot;, &amp;quot;monospace&amp;quot;, monospace; font-size: 14px; line-height: 19px;&quot;&gt;readonly&lt;/div&gt;" style="rounded=1;whiteSpace=wrap;html=1;" vertex="1" parent="1">
          <mxGeometry x="620" y="210" width="120" height="60" as="geometry" />
        </mxCell>
        <mxCell id="HKoM_O8IZkuuAkILYHtu-14" style="edgeStyle=orthogonalEdgeStyle;rounded=0;orthogonalLoop=1;jettySize=auto;html=1;entryX=1;entryY=0.5;entryDx=0;entryDy=0;" edge="1" parent="1" source="HKoM_O8IZkuuAkILYHtu-10" target="HKoM_O8IZkuuAkILYHtu-2">
          <mxGeometry relative="1" as="geometry" />
        </mxCell>
        <mxCell id="HKoM_O8IZkuuAkILYHtu-10" value="reactive.ts&lt;br&gt;&lt;div style=&quot;color: rgb(204, 204, 204); background-color: rgb(31, 31, 31); font-family: &amp;quot;Droid Sans Mono&amp;quot;, &amp;quot;monospace&amp;quot;, monospace; font-size: 14px; line-height: 19px;&quot;&gt;shallowReadonly&lt;/div&gt;" style="rounded=1;whiteSpace=wrap;html=1;" vertex="1" parent="1">
          <mxGeometry x="600" y="50" width="120" height="60" as="geometry" />
        </mxCell>
        <mxCell id="HKoM_O8IZkuuAkILYHtu-22" style="edgeStyle=orthogonalEdgeStyle;rounded=0;orthogonalLoop=1;jettySize=auto;html=1;entryX=0;entryY=0.5;entryDx=0;entryDy=0;" edge="1" parent="1" source="HKoM_O8IZkuuAkILYHtu-15" target="HKoM_O8IZkuuAkILYHtu-2">
          <mxGeometry relative="1" as="geometry" />
        </mxCell>
        <mxCell id="HKoM_O8IZkuuAkILYHtu-15" value="&lt;div style=&quot;color: rgb(204, 204, 204); background-color: rgb(31, 31, 31); font-family: &amp;quot;Droid Sans Mono&amp;quot;, &amp;quot;monospace&amp;quot;, monospace; font-size: 14px; line-height: 19px;&quot;&gt;&lt;div style=&quot;line-height: 19px;&quot;&gt;proxyMap&lt;/div&gt;&lt;div style=&quot;line-height: 19px;&quot;&gt;&lt;div style=&quot;line-height: 19px;&quot;&gt;WeakMap&amp;lt;&lt;span style=&quot;color: #4ec9b0;&quot;&gt;Target&lt;/span&gt;, &lt;span style=&quot;color: #4ec9b0;&quot;&gt;any&lt;/span&gt;&amp;gt;&lt;/div&gt;&lt;/div&gt;&lt;div style=&quot;line-height: 19px;&quot;&gt;四种&lt;/div&gt;&lt;/div&gt;" style="whiteSpace=wrap;html=1;rounded=1;" vertex="1" parent="1">
          <mxGeometry x="20" y="290" width="195" height="60" as="geometry" />
        </mxCell>
        <mxCell id="HKoM_O8IZkuuAkILYHtu-23" style="edgeStyle=orthogonalEdgeStyle;rounded=0;orthogonalLoop=1;jettySize=auto;html=1;" edge="1" parent="1" source="HKoM_O8IZkuuAkILYHtu-19">
          <mxGeometry relative="1" as="geometry">
            <mxPoint x="320" y="240" as="targetPoint" />
          </mxGeometry>
        </mxCell>
        <mxCell id="HKoM_O8IZkuuAkILYHtu-19" value="&lt;span style=&quot;color: rgb(204, 204, 204); font-family: &amp;quot;Droid Sans Mono&amp;quot;, &amp;quot;monospace&amp;quot;, monospace; font-size: 14px; font-style: normal; font-variant-ligatures: normal; font-variant-caps: normal; font-weight: 400; letter-spacing: normal; orphans: 2; text-align: center; text-indent: 0px; text-transform: none; widows: 2; word-spacing: 0px; -webkit-text-stroke-width: 0px; background-color: rgb(31, 31, 31); text-decoration-thickness: initial; text-decoration-style: initial; text-decoration-color: initial; float: none; display: inline !important;&quot;&gt;collectionHandlers&lt;br&gt;&lt;div style=&quot;line-height: 19px;&quot;&gt;ProxyHandler&amp;lt;&lt;span style=&quot;color: #4ec9b0;&quot;&gt;any&lt;/span&gt;&amp;gt;&lt;/div&gt;&lt;/span&gt;" style="whiteSpace=wrap;html=1;rounded=1;" vertex="1" parent="1">
          <mxGeometry x="20" y="210" width="161.25" height="60" as="geometry" />
        </mxCell>
      </root>
    </mxGraphModel>
  </diagram>
</mxfile>
